M48
; DRILL file {KiCad 8.0.0} date 2024-06-01T14:19:10-0300
; FORMAT={-:-/ absolute / metric / decimal}
; #@! TF.CreationDate,2024-06-01T14:19:10-03:00
; #@! TF.GenerationSoftware,Kicad,Pcbnew,8.0.0
; #@! TF.FileFunction,Plated,1,2,PTH
FMAT,2
METRIC
; #@! TA.AperFunction,Plated,PTH,ViaDrill
T1C0.300
; #@! TA.AperFunction,Plated,PTH,ComponentDrill
T2C0.700
; #@! TA.AperFunction,Plated,PTH,ComponentDrill
T3C0.762
; #@! TA.AperFunction,Plated,PTH,ComponentDrill
T4C1.000
; #@! TA.AperFunction,Plated,PTH,ComponentDrill
T5C3.200
%
G90
G05
T1
X93.7Y-84.1
X93.7Y-88.1
X93.7Y-92.1
X93.7Y-96.1
X93.7Y-100.1
X93.7Y-104.1
X93.7Y-108.1
X93.7Y-112.1
X93.7Y-116.1
X93.7Y-120.1
X93.7Y-124.1
X93.7Y-128.1
X97.7Y-84.1
X97.7Y-88.1
X97.7Y-92.1
X97.7Y-96.1
X97.7Y-100.1
X97.7Y-104.1
X97.7Y-108.1
X97.7Y-112.1
X97.7Y-116.1
X97.7Y-120.1
X97.7Y-124.1
X97.7Y-128.1
X101.7Y-76.1
X101.7Y-84.1
X101.7Y-92.1
X101.7Y-116.1
X101.7Y-120.1
X101.7Y-124.1
X101.7Y-128.1
X101.7Y-132.1
X101.7Y-136.1
X104.775Y-109.061
X105.093Y-107.2
X105.7Y-76.1
X105.7Y-84.1
X105.7Y-92.1
X105.7Y-120.1
X105.7Y-124.1
X105.7Y-128.1
X105.7Y-132.1
X105.7Y-136.1
X106.045Y-96.391
X106.839Y-108.109
X106.898Y-97.79
X106.898Y-100.33
X106.898Y-102.87
X109.537Y-97.79
X109.537Y-102.87
X109.537Y-104.775
X109.7Y-76.1
X109.7Y-84.1
X109.7Y-88.1
X109.7Y-92.1
X109.7Y-108.1
X109.7Y-112.1
X109.7Y-116.1
X109.7Y-120.1
X109.7Y-124.1
X109.7Y-128.1
X109.7Y-132.1
X109.7Y-136.1
X109.855Y-99.695
X113.7Y-76.1
X113.7Y-84.1
X113.7Y-88.1
X113.7Y-92.1
X113.7Y-108.1
X113.7Y-112.1
X113.7Y-116.1
X113.7Y-120.1
X113.7Y-124.1
X113.7Y-128.1
X113.7Y-132.1
X113.7Y-136.1
X113.983Y-102.87
X113.983Y-104.775
X114.617Y-100.965
X114.935Y-97.79
X114.935Y-99.7
X115.411Y-109.061
X115.685Y-107.2
X117.475Y-97.79
X117.475Y-108.1
X117.7Y-76.1
X117.7Y-80.1
X117.7Y-84.1
X117.7Y-92.1
X117.7Y-112.1
X117.7Y-120.1
X117.7Y-124.1
X117.7Y-128.1
X117.7Y-132.1
X117.7Y-136.1
X120.015Y-100.33
X120.015Y-106.362
X120.65Y-106.997
X121.25Y-104.825
X121.285Y-102.235
X121.7Y-76.1
X121.7Y-80.1
X121.7Y-84.1
X121.7Y-88.1
X121.7Y-92.1
X121.7Y-96.1
X121.7Y-100.1
X121.7Y-112.1
X121.7Y-116.1
X121.7Y-120.1
X121.7Y-124.1
X121.7Y-128.1
X121.7Y-132.1
X121.7Y-136.1
X121.92Y-103.505
X122.237Y-107.632
X125.095Y-98.875
X125.7Y-76.1
X125.7Y-80.1
X125.7Y-84.1
X125.7Y-92.1
X125.7Y-104.1
X125.7Y-112.1
X125.7Y-120.1
X125.7Y-124.1
X125.7Y-132.1
X125.7Y-136.1
X128.588Y-93.027
X128.588Y-93.98
X128.588Y-94.78
X128.905Y-98.108
X128.905Y-108.902
X129.54Y-109.537
X129.7Y-76.1
X129.7Y-88.1
X129.7Y-112.1
X129.7Y-116.1
X129.7Y-120.1
X129.7Y-124.1
X129.7Y-132.1
X129.7Y-136.1
X129.857Y-100.647
X129.857Y-102.235
X129.857Y-104.14
X130.175Y-84.138
X130.175Y-95.885
X130.175Y-108.902
X130.493Y-89.218
X130.493Y-104.775
X130.493Y-106.204
X131.127Y-87.63
X131.127Y-88.582
X131.762Y-90.805
X131.762Y-93.186
X131.762Y-95.885
X132.239Y-87.471
X132.398Y-99.377
X132.398Y-108.267
X132.715Y-86.677
X133.35Y-95.885
X133.7Y-76.1
X133.7Y-84.1
X133.7Y-112.1
X133.7Y-116.1
X133.7Y-120.1
X133.7Y-124.1
X133.7Y-128.1
X133.7Y-132.1
X133.7Y-136.1
X134.62Y-86.042
X134.62Y-87.947
X134.62Y-89.852
X134.62Y-106.997
X134.857Y-94.338
X134.938Y-93.504
X134.938Y-95.25
X135.255Y-100.33
X136.207Y-91.123
X136.525Y-108.267
X137.16Y-86.042
X137.16Y-87.947
X137.16Y-97.79
X137.16Y-105.41
X137.7Y-76.1
X137.7Y-96.1
X137.7Y-108.1
X137.7Y-112.1
X137.7Y-116.1
X137.7Y-120.1
X137.7Y-124.1
X137.7Y-128.1
X137.7Y-132.1
X138.112Y-101.6
X138.112Y-103.822
X139.7Y-86.042
X139.7Y-89.535
X139.7Y-93.027
X139.7Y-97.79
X139.7Y-100.012
X139.7Y-105.41
X141.31Y-100.625
X141.7Y-76.1
X141.7Y-108.1
X141.7Y-112.1
X141.7Y-116.1
X141.7Y-120.1
X141.7Y-124.1
X141.7Y-128.1
X141.7Y-132.1
X142.24Y-86.042
X142.24Y-87.947
X142.24Y-95.885
X142.24Y-97.79
X142.24Y-105.41
X143.192Y-95.885
X144.145Y-90.487
X144.145Y-95.25
X144.304Y-101.917
X144.463Y-92.392
X144.78Y-95.885
X145.7Y-76.1
X145.7Y-84.1
X145.7Y-88.1
X145.7Y-96.1
X145.7Y-100.1
X145.7Y-112.1
X145.7Y-116.1
X145.7Y-120.1
X145.7Y-124.1
X145.7Y-128.1
X145.7Y-132.1
X145.7Y-136.1
X146.05Y-106.997
X147.002Y-100.012
X149.225Y-84.138
X149.225Y-88.1
X149.7Y-76.1
X149.7Y-92.1
X149.7Y-96.1
X149.7Y-100.1
X149.7Y-108.1
X149.7Y-112.1
X149.7Y-116.1
X149.7Y-120.1
X149.7Y-124.1
X149.7Y-132.1
X149.7Y-136.1
X151.13Y-98.108
X151.13Y-100.647
X151.13Y-101.917
X151.13Y-103.188
X151.13Y-104.775
X151.13Y-106.045
X152.082Y-97.472
X152.082Y-106.045
X153.035Y-98.108
X153.035Y-100.647
X153.035Y-101.917
X153.035Y-103.188
X153.035Y-104.775
X153.035Y-106.045
X153.7Y-76.1
X153.7Y-80.1
X153.7Y-84.1
X153.7Y-92.1
X153.7Y-96.1
X153.7Y-112.1
X153.7Y-120.1
X153.7Y-124.1
X153.7Y-132.1
X153.7Y-136.1
X153.987Y-101.282
X153.987Y-106.045
X154.94Y-100.647
X154.94Y-101.917
X154.94Y-103.188
X154.94Y-104.775
X154.94Y-106.045
X157.7Y-76.1
X157.7Y-80.1
X157.7Y-84.1
X157.7Y-88.1
X157.7Y-92.1
X157.7Y-96.1
X157.7Y-100.1
X157.7Y-108.1
X157.7Y-112.1
X157.7Y-124.1
X157.7Y-128.1
X157.7Y-132.1
X157.7Y-136.1
X157.797Y-104.775
X157.797Y-115.887
X158.115Y-120.65
X161.7Y-76.1
X161.7Y-80.1
X161.7Y-84.1
X161.7Y-92.1
X161.7Y-96.1
X161.7Y-100.1
X161.7Y-104.775
X161.7Y-108.1
X161.7Y-112.1
X161.7Y-132.1
X161.7Y-136.1
X165.1Y-119.602
X165.1Y-125.095
X165.7Y-76.1
X165.7Y-84.1
X165.7Y-88.1
X165.7Y-92.1
X165.7Y-96.1
X165.7Y-100.1
X165.7Y-104.775
X165.7Y-108.1
X165.7Y-112.1
X165.7Y-116.1
X165.7Y-132.1
X165.7Y-136.1
X169.7Y-76.1
X169.7Y-84.1
X169.7Y-88.1
X169.7Y-92.1
X169.7Y-96.1
X169.7Y-99.1
X169.7Y-104.14
X169.7Y-108.1
X169.7Y-112.1
X169.7Y-116.1
X169.7Y-132.1
X169.7Y-136.1
X171.132Y-119.697
X171.132Y-124.1
X173.037Y-132.398
X173.7Y-76.1
X173.7Y-84.1
X173.7Y-92.1
X173.7Y-96.1
X173.7Y-99.1
X173.7Y-104.1
X173.7Y-108.1
X173.7Y-136.1
X177.165Y-119.697
X177.165Y-125.095
X177.7Y-76.1
X177.7Y-84.1
X177.7Y-88.1
X177.7Y-92.1
X177.7Y-116.1
X177.7Y-128.1
X177.7Y-132.1
X177.7Y-136.1
X181.7Y-84.1
X181.7Y-88.1
X181.7Y-92.1
X181.7Y-96.1
X181.7Y-100.1
X181.7Y-104.1
X181.7Y-108.1
X181.7Y-116.1
X181.7Y-128.1
X185.7Y-84.1
X185.7Y-88.1
X185.7Y-92.1
X185.7Y-96.1
X185.7Y-100.1
X185.7Y-104.1
X185.7Y-108.1
X185.7Y-112.1
X185.7Y-116.1
X185.7Y-120.1
X185.7Y-124.1
X185.7Y-128.1
T2
X120.65Y-127.317
X135.89Y-84.455
X135.89Y-92.392
X138.43Y-84.455
X138.43Y-92.392
X139.7Y-106.68
X140.97Y-84.455
X142.558Y-106.68
X143.51Y-84.455
X158.75Y-127.317
X171.45Y-127.317
T3
X105.62Y-97.79
X105.62Y-100.33
X105.62Y-102.87
X105.62Y-105.41
X108.16Y-97.79
X108.16Y-100.33
X108.16Y-102.87
X108.16Y-105.41
X116.205Y-97.79
X116.205Y-100.33
X116.205Y-102.87
X116.205Y-105.41
X118.745Y-97.79
X118.745Y-100.33
X118.745Y-102.87
X118.745Y-105.41
X135.89Y-88.9
X138.43Y-88.9
X140.97Y-88.9
X143.51Y-88.9
T4
X101.917Y-95.25
X101.917Y-97.79
X101.917Y-100.33
X101.917Y-102.87
X101.917Y-105.41
X101.917Y-107.95
X101.917Y-110.49
X101.917Y-113.03
X177.482Y-95.25
X177.482Y-97.79
X177.482Y-100.33
X177.482Y-102.87
X177.482Y-107.95
X177.482Y-110.49
X177.482Y-113.03
T5
X95.7Y-78.1
X95.7Y-134.1
X183.7Y-78.1
X183.7Y-134.1
M30
